<?xml version="1.0" encoding="UTF-8" standalone="no"?>
<!-- Created with Inkscape (http://www.inkscape.org/) -->

<svg
   xmlns:dc="http://purl.org/dc/elements/1.1/"
   xmlns:cc="http://creativecommons.org/ns#"
   xmlns:rdf="http://www.w3.org/1999/02/22-rdf-syntax-ns#"
   xmlns:svg="http://www.w3.org/2000/svg"
   xmlns="http://www.w3.org/2000/svg"
   xmlns:sodipodi="http://sodipodi.sourceforge.net/DTD/sodipodi-0.dtd"
   xmlns:inkscape="http://www.inkscape.org/namespaces/inkscape"
   width="693.90698"
   height="626.34045"
   id="svg2"
   version="1.1"
   inkscape:version="0.48.4 r9939"
   sodipodi:docname="map-kb.svg">
  <defs
     id="defs4" />
  <sodipodi:namedview
     id="base"
     pagecolor="#ffffff"
     bordercolor="#666666"
     borderopacity="1.0"
     inkscape:pageopacity="1"
     inkscape:pageshadow="2"
     inkscape:zoom="1.4"
     inkscape:cx="338.37537"
     inkscape:cy="320.17553"
     inkscape:document-units="px"
     inkscape:current-layer="layer1"
     showgrid="false"
     inkscape:window-width="1918"
     inkscape:window-height="1066"
     inkscape:window-x="1280"
     inkscape:window-y="12"
     inkscape:window-maximized="0"
     fit-margin-top="0"
     fit-margin-left="0"
     fit-margin-right="0"
     fit-margin-bottom="0" />
  <metadata
     id="metadata7">
    <rdf:RDF>
      <cc:Work
         rdf:about="">
        <dc:format>image/svg+xml</dc:format>
        <dc:type
           rdf:resource="http://purl.org/dc/dcmitype/StillImage" />
        <dc:title></dc:title>
      </cc:Work>
    </rdf:RDF>
  </metadata>
  <g
     inkscape:label="Layer 1"
     inkscape:groupmode="layer"
     id="layer1"
     transform="translate(-30.147714,-204.34421)">
    <path
       style="fill:none;stroke:#000000;stroke-width:1px;stroke-linecap:butt;stroke-linejoin:miter;stroke-opacity:1"
       d="M 31.062191,460.7916 668.21591,460.91787 667.20576,280.10056 30.809653,228.07771"
       id="path3054"
       inkscape:connector-curvature="0"
       sodipodi:nodetypes="cccc" />
    <path
       style="fill:none;stroke:#000000;stroke-width:1px;stroke-linecap:butt;stroke-linejoin:miter;stroke-opacity:1"
       d="M 30.809653,474.04985 668.21591,475.56508 687.91388,789.72252 30.809653,750.83165"
       id="path3056"
       inkscape:connector-curvature="0"
       sodipodi:nodetypes="cccc" />
    <path
       style="fill:none;stroke:#000000;stroke-width:1px;stroke-linecap:butt;stroke-linejoin:miter;stroke-opacity:1"
       d="m 722.76415,265.95843 -40.40611,12.12183 1.01016,179.80715 38.89087,-7.57614"
       id="path3060"
       inkscape:connector-curvature="0" />
    <path
       style="fill:none;stroke:#000000;stroke-width:1px;stroke-linecap:butt;stroke-linejoin:miter;stroke-opacity:1"
       d="M 30.647714,212.50963 674.27682,266.4635 722.76415,251.81629"
       id="path3062"
       inkscape:connector-curvature="0"
       sodipodi:nodetypes="ccc" />
    <path
       style="fill:none;stroke:#000000;stroke-width:1px;stroke-linecap:butt;stroke-linejoin:miter;stroke-opacity:1"
       d="m 722.76415,464.95848 -38.3858,9.09137 16.66752,315.67267 20.20305,0"
       id="path3064"
       inkscape:connector-curvature="0" />
    <path
       style="fill:none;stroke:#000000;stroke-width:1px;stroke-linecap:butt;stroke-linejoin:miter;stroke-opacity:1"
       d="m 30.809652,767.24662 658.114388,40.15357 1.51523,22.22336"
       id="path3066"
       inkscape:connector-curvature="0"
       sodipodi:nodetypes="ccc" />
    <path
       style="fill:none;stroke:#000000;stroke-width:1px;stroke-linecap:butt;stroke-linejoin:miter;stroke-opacity:1"
       d="m 699.02556,830.12862 1.51523,-23.23351 22.72843,-0.50507"
       id="path3068"
       inkscape:connector-curvature="0" />
    <path
       style="fill:none;stroke:#000000;stroke-width:1px;stroke-linecap:butt;stroke-linejoin:miter;stroke-opacity:1"
       d="m 539.29519,445.89185 0,-56.94735 -41.16372,0.25254 0.12627,-79.54952 -40.15356,0.50508 0.12627,-10.10153 -29.04189,0 0,9.84899 -10.98541,0.25254 -0.12626,-6.31345 -18.18275,0 0.25254,6.06091 -12.2481,0.12627 0.37881,-10.10153 -29.54697,0 0.12627,9.84899 -41.03744,0 0.12626,79.04444 -40.53237,0.25254 0.12627,56.94735 z"
       id="path3070"
       inkscape:connector-curvature="0" />
    <path
       style="fill:none;stroke:#000000;stroke-width:1px;stroke-linecap:butt;stroke-linejoin:miter;stroke-opacity:1"
       d="m 425.08482,506.87981 -0.88388,35.1028 33.77697,0.88388 0.1894,-34.97653 z"
       id="path3072"
       inkscape:connector-curvature="0" />
    <path
       style="fill:none;stroke:#000000;stroke-width:1px;stroke-linecap:butt;stroke-linejoin:miter;stroke-opacity:1"
       d="m 458.16731,507.95309 14.07901,-11.11167 160.74052,0.0631 24.05426,22.72843 6.3964,154.33634 -83.32583,-2.05584 0.0631,-6.09248 12.18497,0.0947 0.72604,-58.90452 L 555.14196,567.86777 477.80215,566.1 458.10418,542.92963 z"
       id="path3074"
       inkscape:connector-curvature="0" />
    <path
       style="fill:none;stroke:#000000;stroke-width:1px;stroke-linecap:butt;stroke-linejoin:miter;stroke-opacity:1"
       d="m 424.28572,541.91575 -62.41072,55.98215 4.46429,5.08928 -1.25,26.07143 -6.875,5.98214 56.96428,62.76786 -1.16071,33.21429 -9.55357,6.96428 -29.375,-1.96428 -56.96429,-59.375 -4.91071,3.75 -27.67857,-0.53572 -4.64286,-5.17857 -60.44643,56.25 -32.05357,-0.80357 -9.46429,-10.98214 0.98214,-30.26786 60.53572,-54.82143 -6.33929,-6.875 1.25,-25.44643 6.875,-5.98214 -57.05357,-60.80357 0.98214,-29.91072 9.19643,-9.10714 33.48215,0.0893 56.42857,59.82142 4.91071,-6.33928 27.05357,0.17857 6.16072,6.51786 62.85714,-59.19643 30.625,-0.26786 8.48214,10.35714 z"
       id="path3076"
       inkscape:connector-curvature="0" />
    <path
       style="fill:none;stroke:#000000;stroke-width:1px;stroke-linecap:butt;stroke-linejoin:miter;stroke-opacity:1"
       d="m 415.04643,698.93506 39.90102,1.13642 -0.88388,28.78935 -39.64849,-1.01015 z"
       id="path3078"
       inkscape:connector-curvature="0" />
    <path
       style="fill:none;stroke:#000000;stroke-width:1px;stroke-linecap:butt;stroke-linejoin:miter;stroke-opacity:1"
       d="m 454.94745,700.32402 20.45559,-19.57171 103.79318,3.283 -2.02031,59.34646 -114.90485,-4.41942 -8.33376,-10.10152 z"
       id="path3080"
       inkscape:connector-curvature="0" />
    <path
       style="fill:none;stroke:#000000;stroke-width:1px;stroke-linecap:butt;stroke-linejoin:miter;stroke-opacity:1"
       d="m 579.95383,671.91348 -2.65165,71.8471 78.16055,2.39911 10.73287,-11.23795 -2.14657,-60.86169 z"
       id="path3082"
       inkscape:connector-curvature="0" />
    <path
       style="fill:none;stroke:#000000;stroke-width:1px;stroke-linecap:butt;stroke-linejoin:miter;stroke-opacity:1"
       d="m 186.07143,504.68361 c -0.71429,0.17857 -35.71429,-0.89286 -35.71429,-0.89286 l 0,29.10715 34.82143,1.96428 z"
       id="path3084"
       inkscape:connector-curvature="0" />
    <path
       style="fill:none;stroke:#000000;stroke-width:1px;stroke-linecap:butt;stroke-linejoin:miter;stroke-opacity:1"
       d="m 150.17857,503.61218 -6.60714,-7.85714 -55.178573,0 -2.678571,69.64286 29.107144,0.17857 35.35714,-32.5 z"
       id="path3086"
       inkscape:connector-curvature="0" />
    <path
       style="fill:none;stroke:#000000;stroke-width:1px;stroke-linecap:butt;stroke-linejoin:miter;stroke-opacity:1"
       d="m 88.035714,495.57647 -57.364757,0"
       id="path3088"
       inkscape:connector-curvature="0"
       sodipodi:nodetypes="cc" />
    <path
       style="fill:none;stroke:#000000;stroke-width:1px;stroke-linecap:butt;stroke-linejoin:miter;stroke-opacity:1"
       d="M 85.714286,565.3979 85,568.96932 l -15.714286,-0.17857 0,32.32143 -38.510153,0.0523"
       id="path3090"
       inkscape:connector-curvature="0"
       sodipodi:nodetypes="ccccc" />
    <path
       style="fill:none;stroke:#000000;stroke-width:1px;stroke-linecap:butt;stroke-linejoin:miter;stroke-opacity:1"
       d="m 179.64286,689.1479 -36.78572,-1.25 -0.35714,30.89285 36.42857,0.35715 z"
       id="path3092"
       inkscape:connector-curvature="0" />
    <path
       style="fill:none;stroke:#000000;stroke-width:1px;stroke-linecap:butt;stroke-linejoin:miter;stroke-opacity:1"
       d="m 143.21429,688.25504 -31.25,-34.10714 -20.892861,0 -1.785715,71.96428 43.928576,1.42857 9.64285,-9.10714 z"
       id="path3094"
       inkscape:connector-curvature="0" />
    <path
       style="fill:none;stroke:#000000;stroke-width:1px;stroke-linecap:butt;stroke-linejoin:miter;stroke-opacity:1"
       d="m 91.607143,653.79075 -60.957851,-2.5523"
       id="path3096"
       inkscape:connector-curvature="0"
       sodipodi:nodetypes="cc" />
    <path
       style="fill:none;stroke:#000000;stroke-width:1px;stroke-linecap:butt;stroke-linejoin:miter;stroke-opacity:1"
       d="M 88.75,725.93361 30.901831,724.50504"
       id="path3098"
       inkscape:connector-curvature="0"
       sodipodi:nodetypes="cc" />
    <path
       style="fill:none;stroke:#000000;stroke-width:1px;stroke-linecap:butt;stroke-linejoin:miter;stroke-opacity:1"
       d="m 538.91638,446.01812 1.01016,-151.27035 108.59139,0.75762 3.78808,140.15866 -10.85914,11.61676 z"
       id="path3100"
       inkscape:connector-curvature="0" />
    <path
       style="fill:none;stroke:#000000;stroke-width:1px;stroke-linecap:butt;stroke-linejoin:miter;stroke-opacity:1"
       d="M 277.14286,445.93361 30.818891,445.57647"
       id="path3102"
       inkscape:connector-curvature="0"
       sodipodi:nodetypes="cc" />
    <path
       style="fill:none;stroke:#000000;stroke-width:1px;stroke-linecap:butt;stroke-linejoin:miter;stroke-opacity:1"
       d="M 277.14286,388.79075 30.775561,389.86218"
       id="path3104"
       inkscape:connector-curvature="0"
       sodipodi:nodetypes="cc" />
    <text
       xml:space="preserve"
       style="font-size:10px;font-style:normal;font-weight:normal;line-height:125%;letter-spacing:0px;word-spacing:0px;fill:#000000;fill-opacity:1;stroke:none;font-family:Sans"
       x="226.77924"
       y="471.27191"
       id="text3106"
       sodipodi:linespacing="125%"><tspan
         sodipodi:role="line"
         id="tspan3108"
         x="226.77924"
         y="471.27191">rue Pasteur</tspan></text>
    <text
       xml:space="preserve"
       style="font-size:14px;font-style:normal;font-weight:normal;line-height:125%;letter-spacing:0px;word-spacing:0px;fill:#000000;fill-opacity:1;stroke:none;font-family:Sans"
       x="212.09735"
       y="222.49663"
       id="text3118"
       sodipodi:linespacing="125%"
       transform="matrix(0.99663739,0.08193851,-0.08193851,0.99663739,0,0)"><tspan
         sodipodi:role="line"
         id="tspan3120"
         x="212.09735"
         y="222.49663">rue Voltaire</tspan></text>
    <text
       xml:space="preserve"
       style="font-size:14px;font-style:normal;font-weight:normal;line-height:125%;letter-spacing:0px;word-spacing:0px;fill:#000000;fill-opacity:1;stroke:none;font-family:Sans"
       x="393.44833"
       y="189.48787"
       id="text3122"
       sodipodi:linespacing="125%"
       transform="matrix(0.99663739,0.08193851,-0.08193851,0.99663739,0,0)"><tspan
         sodipodi:role="line"
         id="tspan3124"
         x="393.44833"
         y="189.48787">périphérique</tspan></text>
    <rect
       style="fill:none;stroke:#000000"
       id="rect3910"
       width="692.74506"
       height="625.34045"
       x="30.809652"
       y="204.84421" />
    <path
       style="fill:#666666;stroke:none"
       d="m 35.473233,444.72404 -4.166879,-0.17016 0,-26.93224 0,-26.93223 67.553951,-0.32255 c 37.154675,-0.1774 92.384765,-0.46679 122.733535,-0.64309 l 55.17958,-0.32054 0,27.84829 0,27.84829 L 158.20677,444.997 C 92.995107,444.94046 37.765016,444.81763 35.473233,444.72404 l 0,0 z"
       id="path3912"
       inkscape:connector-curvature="0" />
    <path
       style="fill:#666666;fill-opacity:1;stroke:none"
       d="m 596.76775,445.95166 c -24.30679,-0.31838 -47.01122,-0.60249 -50.45428,-0.63135 l -6.26011,-0.0525 0.25388,-74.76388 c 0.13963,-41.12014 0.34291,-74.82138 0.45173,-74.89165 0.30768,-0.19869 106.65314,0.62639 106.85578,0.82904 0.0988,0.0988 1.01903,31.31353 2.04495,69.36605 l 1.8653,69.18641 -1.07931,1.37212 c -0.59362,0.75466 -2.97031,3.35042 -5.28153,5.76835 l -4.20223,4.39625 -44.19418,-0.57888 z"
       id="path3914"
       inkscape:connector-curvature="0" />
    <path
       style="fill:#666666;fill-opacity:1;stroke:none"
       d="m 610.65735,744.12631 c -17.77868,-0.55433 -32.38709,-1.05653 -32.46314,-1.11601 -0.14634,-0.11447 2.41791,-70.14131 2.57297,-70.26485 0.0971,-0.0774 82.37195,1.9478 82.48612,2.03037 0.0374,0.0271 0.43483,10.73156 0.88317,23.78778 0.44834,13.05622 0.94808,26.46599 1.11055,29.7995 l 0.29539,6.06091 -5.13493,5.42957 -5.13493,5.42957 -6.14516,-0.0745 c -3.37983,-0.041 -20.69135,-0.52803 -38.47004,-1.08235 z"
       id="path3916"
       inkscape:connector-curvature="0" />
    <path
       style="fill:#666666;fill-opacity:1;stroke:none"
       d="m 31.587405,548.30341 0,-52.02286 28.081559,0 28.081559,0 -0.314026,5.68211 c -0.172716,3.12516 -0.761549,18.0691 -1.308516,33.20876 -0.546973,15.13966 -1.12629,28.7199 -1.287374,30.17831 l -0.292879,2.65165 -8.044878,0 -8.044877,0 0,16.16244 0,16.16244 -18.435284,0 -18.435284,0 0,-52.02285 z"
       id="path3918"
       inkscape:connector-curvature="0" />
    <path
       style="fill:#ff9955;fill-opacity:1;stroke:none"
       d="m 53.305685,724.3137 c -11.806158,-0.32837 -21.522563,-0.63119 -21.592011,-0.67293 -0.06945,-0.0417 -0.126269,-16.19666 -0.126269,-35.89982 l 0,-35.82392 2.651651,0.21738 c 1.458408,0.11957 14.584077,0.694 29.168155,1.27653 14.584077,0.58253 26.604574,1.1435 26.712211,1.24661 0.107637,0.1031 -0.180656,15.25169 -0.640659,33.66351 -0.459998,18.41183 -0.832169,34.21472 -0.827047,35.11754 l 0.0093,1.6415 -6.944799,-0.0847 c -3.819639,-0.0466 -16.604382,-0.35335 -28.41054,-0.68173 z"
       id="path3920"
       inkscape:connector-curvature="0" />
    <path
       style="fill:#ffccaa;fill-opacity:1;stroke:none"
       d="m 278.06463,417.48865 0,-27.77919 20.20305,0 20.20305,0 0,-39.64849 0,-39.64849 20.45559,0 20.45559,0 0,-4.79822 0,-4.79823 14.06528,0 14.06528,0 -0.24321,5.05077 -0.24321,5.05076 4.99202,-0.006 c 2.74561,-0.003 5.84434,-0.14644 6.88605,-0.31863 l 1.89404,-0.31306 0,-2.96437 0,-2.96437 8.33376,0 8.33376,0 0,3.28299 0,3.283 5.17703,-0.007 c 7.83867,-0.0104 7.44987,0.26904 7.44987,-5.35531 l 0,-4.73932 13.63706,0 13.63706,0 0,5.10652 0,5.10653 19.95052,-0.37359 19.95051,-0.37358 0,39.71377 0,39.71378 20.789,0 20.789,0 -0.33232,12.50063 c -0.18277,6.87536 -0.33281,19.37599 -0.33341,27.7792 l -10e-4,15.27856 -130.05714,0 -130.05714,0 0,-27.7792 z"
       id="path3922"
       inkscape:connector-curvature="0" />
    <path
       style="fill:#aaeeff;fill-opacity:1;stroke:none"
       d="m 387.98697,736.18268 c -11.97065,-0.84596 -12.61195,-0.94338 -13.69682,-2.0807 -10.97458,-11.50523 -51.58613,-53.92169 -53.51367,-55.892 l -2.61785,-2.67594 -2.64494,2.10593 -2.64493,2.10593 -13.48773,-0.35963 -13.48772,-0.35964 -2.52538,-2.73859 -2.52538,-2.7386 -30.30458,28.3226 -30.30458,28.3226 -9.04607,-0.28442 c -4.97534,-0.15644 -12.02115,-0.29135 -15.65736,-0.2998 l -6.6113,-0.0154 -4.64072,-5.46485 -4.64073,-5.46485 0.4592,-11.81864 c 0.25255,-6.50026 0.46579,-13.09295 0.47384,-14.65044 l 0.0147,-2.83179 30.30457,-27.43572 c 16.66752,-15.08965 30.30458,-27.6868 30.30458,-27.99367 0,-0.30688 -1.38777,-1.91454 -3.08393,-3.5726 l -3.08393,-3.01465 0.31455,-9.09137 c 0.173,-5.00026 0.45344,-10.71423 0.62319,-12.69773 l 0.30864,-3.60635 3.47505,-2.94716 c 1.91128,-1.62095 3.41636,-3.10679 3.34462,-3.30189 -0.0717,-0.1951 -11.381,-12.34401 -25.1317,-26.99758 -13.7507,-14.65358 -26.55918,-28.30846 -28.46328,-30.34419 l -3.46201,-3.70133 0.37137,-14.51789 0.37138,-14.51789 4.31845,-4.41942 4.31846,-4.41941 16.5132,0 16.51321,0 27.52076,29.16815 c 15.13643,16.04249 27.97552,29.57327 28.53132,30.06842 0.98734,0.87958 1.06724,0.825 3.47807,-2.37606 l 2.46752,-3.27632 13.2135,-0.023 13.21351,-0.023 3.00827,3.28299 c 1.65454,1.80565 3.22432,3.283 3.48837,3.283 0.26406,0 14.55628,-13.28183 31.76047,-29.51518 l 31.28037,-29.51522 10.85914,-0.0348 c 5.97252,-0.0192 12.67809,-0.17645 14.90125,-0.34957 l 4.04211,-0.31475 4.05303,4.98974 4.05302,4.98973 -0.34224,12.62691 c -0.18823,6.9448 -0.36496,14.68 -0.39272,17.18935 l -0.0505,4.56244 -30.35234,27.25736 c -16.69378,14.99155 -30.83121,27.63382 -31.41651,28.09393 -1.06139,0.83438 -1.0578,0.84401 1.3798,3.69725 l 2.44397,2.8607 -0.58676,12.46518 -0.58676,12.46519 -3.63371,3.34602 -3.63372,3.34603 3.59489,3.97758 c 1.97718,2.18767 14.87629,16.36457 28.66469,31.50423 l 25.06982,27.52666 -0.26169,5.80838 c -0.14393,3.19461 -0.40849,10.50669 -0.5879,16.24907 l -0.32622,10.44069 -4.58546,3.32264 c -3.73301,2.70494 -4.918,3.31038 -6.37426,3.25676 -0.98385,-0.0362 -7.4402,-0.46525 -14.34746,-0.95338 l 2e-5,0 z"
       id="path3924"
       inkscape:connector-curvature="0" />
    <path
       style="fill:#ccffaa;fill-opacity:1;stroke:none"
       d="m 614.19289,672.02203 c -18.05648,-0.48971 -32.88678,-0.91168 -32.95623,-0.93773 -0.0695,-0.026 -0.12627,-1.07014 -0.12627,-2.3202 l 0,-2.27285 6.06092,0 6.06091,0 0,-8.756 c 0,-4.81581 0.14855,-18.28241 0.33011,-29.92577 l 0.33012,-21.16976 -10.53763,-10.85914 c -5.79569,-5.97253 -14.43673,-14.86303 -19.2023,-19.75665 l -8.66467,-8.89752 -38.58024,-0.87294 c -21.21913,-0.48012 -38.72918,-1.02193 -38.91121,-1.20402 -0.18204,-0.18208 -4.55726,-5.31706 -9.72272,-11.41106 l -9.39175,-11.08 0,-17.05978 0,-17.05979 6.69226,-5.31631 6.69226,-5.3163 80.24692,-0.005 80.2469,-0.005 7.35392,6.9448 c 4.04466,3.81964 9.35507,8.87671 11.80091,11.23794 l 4.44699,4.29315 3.03639,73.74114 c 1.67001,40.55762 3.03476,74.93438 3.03279,76.39279 l -0.004,2.65165 -7.70241,-0.0724 c -4.23633,-0.0399 -22.4759,-0.47309 -40.53237,-0.96279 z"
       id="path3926"
       inkscape:connector-curvature="0" />
    <path
       style="fill:#ff8080;fill-opacity:1;stroke:none"
       d="m 519.49109,740.45335 c -29.86264,-1.19642 -54.87117,-2.19016 -55.57451,-2.20829 -0.98672,-0.0254 -2.17725,-1.13365 -5.21247,-4.85204 l -3.93366,-4.81908 0.46108,-13.91096 0.46108,-13.91097 8.59029,-8.26067 c 4.72466,-4.54337 9.31707,-8.87222 10.20535,-9.61966 l 1.61507,-1.35899 51.11457,1.62321 c 28.11302,0.89276 51.13968,1.66088 51.17037,1.70692 0.0307,0.0461 -0.35586,11.56158 -0.85897,25.59007 -0.50311,14.02849 -0.92596,27.04052 -0.93967,28.91562 -0.0248,3.39248 -0.0318,3.40894 -1.41388,3.34471 -0.76392,-0.0355 -25.82202,-1.04345 -55.68465,-2.23987 z"
       id="path3928"
       inkscape:connector-curvature="0" />
    <path
       style="fill:#e6e6e6;fill-opacity:1;stroke:none"
       d="m 439.49552,541.6753 c -7.74572,-0.22501 -14.17318,-0.49916 -14.28325,-0.60924 -0.24372,-0.24371 0.85582,-32.83862 1.11675,-33.10513 0.10173,-0.1039 7.12682,-0.021 15.61132,0.18429 l 15.42636,0.37319 0,16.86204 0,16.86204 -1.89403,-0.079 c -1.04172,-0.0435 -8.23144,-0.26314 -15.97715,-0.48814 z"
       id="path3930"
       inkscape:connector-curvature="0" />
    <path
       style="fill:#e6e6e6;fill-opacity:1;stroke:none"
       d="m 432.8705,727.57876 c -6.38921,-0.19016 -12.98046,-0.37525 -14.64721,-0.41132 l -3.03046,-0.0656 0.31824,-13.00644 c 0.17504,-7.15354 0.3455,-13.32136 0.37881,-13.70627 0.0507,-0.58525 2.06568,-0.64636 12.30867,-0.37328 6.73645,0.1796 15.37659,0.467 19.20029,0.63868 l 6.95219,0.31214 -0.25498,3.0916 c -0.14023,1.70038 -0.39585,7.80775 -0.56803,13.57194 l -0.31305,10.48033 -4.36386,-0.093 c -2.40012,-0.0512 -9.59139,-0.24862 -15.98061,-0.43877 z"
       id="path3932"
       inkscape:connector-curvature="0" />
    <path
       style="fill:#e6e6e6;fill-opacity:1;stroke:none"
       d="m 154.44721,718.13585 -10.73287,-0.14691 0,-14.71027 0,-14.71028 7.19733,0.31947 c 3.95854,0.17571 11.85881,0.46763 17.55615,0.6487 l 10.35881,0.32923 -0.13474,9.14713 c -0.0741,5.03092 -0.26858,11.47679 -0.43216,14.32416 l -0.29741,5.17703 -6.39112,-0.11567 c -3.51512,-0.0636 -11.22091,-0.18179 -17.12399,-0.26259 z"
       id="path3934"
       inkscape:connector-curvature="0" />
    <path
       style="fill:#aaeeff;fill-opacity:1;stroke:none"
       d="m 167.45292,533.12495 c -7.91707,-0.49554 -14.79242,-0.91965 -15.27855,-0.94248 -0.81939,-0.0385 -0.88389,-1.05627 -0.88389,-13.9485 l 0,-13.90699 2.39911,0.26096 c 1.31952,0.14352 8.96885,0.4055 16.99852,0.58216 l 14.5994,0.3212 -0.331,10.62835 c -0.18204,5.84559 -0.33099,12.29634 -0.33099,14.33499 l 0,3.70663 -1.38896,-0.0677 c -0.76393,-0.0372 -7.86657,-0.47311 -15.78364,-0.96865 z"
       id="path3936"
       inkscape:connector-curvature="0" />
    <path
       style="fill:#aaeeff;fill-opacity:1;stroke:none"
       d="m 105.076,725.95445 c -8.055963,-0.26003 -14.734749,-0.55597 -14.841744,-0.65765 -0.106994,-0.10168 0.180523,-15.13597 0.638926,-33.40955 0.458403,-18.27357 0.830049,-34.07699 0.82588,-35.11871 l -0.0076,-1.89404 9.975258,0.0199 9.97525,0.0199 15.32362,16.76988 15.32362,16.76988 -0.33391,14.90373 -0.33391,14.90374 -4.23505,4.16688 -4.23505,4.16688 -6.71405,-0.084 c -3.69272,-0.0462 -13.30529,-0.29681 -21.36126,-0.55684 z"
       id="path3938"
       inkscape:connector-curvature="0" />
    <path
       style="fill:#aaeeff;fill-opacity:1;stroke:none"
       d="m 92.070289,564.59403 -5.42957,-0.16236 0.0063,-2.38202 c 0.0043,-1.62239 2.261343,-60.58399 2.512827,-65.64283 0.0035,-0.0694 12.114234,-0.12627 26.912844,-0.12627 l 26.90656,0 3.14547,3.76921 3.14548,3.76921 -0.0141,14.53981 -0.0141,14.5398 -17.47846,16.03617 -17.47846,16.03617 -8.39258,-0.10726 c -4.61592,-0.059 -10.835885,-0.18034 -13.822148,-0.26963 z"
       id="path3940"
       inkscape:connector-curvature="0" />
    <path
       style="fill:#e6e6e6;fill-opacity:1;stroke:none"
       d="m 168.46308,532.96978 c -8.75045,-0.51642 -16.0678,-1.08463 -16.26078,-1.26269 -0.19298,-0.17805 -0.51117,-6.36923 -0.70708,-13.75817 l -0.35621,-13.43443 1.4647,0.18286 c 0.80558,0.10057 8.35047,0.37968 16.76643,0.62025 8.41596,0.24058 15.3736,0.52168 15.46142,0.62467 0.0878,0.103 0.0206,6.43759 -0.14946,14.07686 l -0.30912,13.8896 -15.9099,-0.93895 z"
       id="path3942"
       inkscape:connector-curvature="0" />
    <text
       xml:space="preserve"
       style="font-size:14px;font-style:normal;font-weight:normal;line-height:125%;letter-spacing:0px;word-spacing:0px;fill:#000000;fill-opacity:1;stroke:none;font-family:Sans"
       x="405.33896"
       y="758.04767"
       id="text3944"
       sodipodi:linespacing="125%"
       transform="matrix(0.99791562,0.06453231,-0.06453231,0.99791562,0,0)"><tspan
         sodipodi:role="line"
         id="tspan3946"
         x="405.33896"
         y="758.04767">rue Roger Salengro</tspan></text>
    <text
       xml:space="preserve"
       style="font-size:14px;font-style:normal;font-weight:normal;line-height:125%;letter-spacing:0px;word-spacing:0px;fill:#000000;fill-opacity:1;stroke:none;font-family:Sans"
       x="583.10699"
       y="-644.64636"
       id="text3948"
       sodipodi:linespacing="125%"
       transform="matrix(0.05407881,0.99853667,-0.99853667,0.05407881,0,0)"><tspan
         sodipodi:role="line"
         id="tspan3950"
         x="583.10699"
         y="-644.64636">rue Emile Zola</tspan></text>
    <text
       xml:space="preserve"
       style="font-size:14px;font-style:normal;font-weight:normal;text-align:center;line-height:125%;letter-spacing:0px;word-spacing:0px;text-anchor:middle;fill:#000000;fill-opacity:1;stroke:none;font-family:Sans"
       x="474.35831"
       y="617.7193"
       id="text3952"
       sodipodi:linespacing="125%"><tspan
         sodipodi:role="line"
         id="tspan3954"
         x="474.35831"
         y="617.7193">cour</tspan><tspan
         sodipodi:role="line"
         x="474.35831"
         y="635.2193"
         id="tspan3956">Pasteur</tspan></text>
    <text
       xml:space="preserve"
       style="font-size:14px;font-style:normal;font-weight:normal;text-align:center;line-height:125%;letter-spacing:0px;word-spacing:0px;text-anchor:middle;fill:#000000;fill-opacity:1;stroke:none;font-family:Sans"
       x="162.50098"
       y="604.50507"
       id="text3966"
       sodipodi:linespacing="125%"><tspan
         sodipodi:role="line"
         id="tspan3968"
         x="162.50098"
         y="604.50507">cour</tspan><tspan
         sodipodi:role="line"
         x="162.50098"
         y="622.00507"
         id="tspan3970">Paritalie</tspan></text>
    <text
       xml:space="preserve"
       style="font-size:14px;font-style:normal;font-weight:normal;line-height:125%;letter-spacing:0px;word-spacing:0px;fill:#000000;fill-opacity:1;stroke:none;font-family:Sans"
       x="91.428566"
       y="420.93359"
       id="text3972"
       sodipodi:linespacing="125%"><tspan
         sodipodi:role="line"
         id="tspan3974"
         x="91.428566"
         y="420.93359">hors école</tspan></text>
    <text
       xml:space="preserve"
       style="font-size:14px;font-style:normal;font-weight:normal;line-height:125%;letter-spacing:0px;word-spacing:0px;fill:#000000;fill-opacity:1;stroke:none;font-family:Sans"
       x="588.56104"
       y="715.00458"
       id="text3972-6"
       sodipodi:linespacing="125%"><tspan
         sodipodi:role="line"
         id="tspan3974-5"
         x="588.56104"
         y="715.00458">hors école</tspan></text>
    <text
       xml:space="preserve"
       style="font-size:14px;font-style:normal;font-weight:normal;line-height:125%;letter-spacing:0px;word-spacing:0px;fill:#000000;fill-opacity:1;stroke:none;font-family:Sans"
       x="510.92319"
       y="-42.357632"
       id="text3972-4"
       sodipodi:linespacing="125%"
       transform="matrix(0,1,-1,0,0,0)"><tspan
         sodipodi:role="line"
         id="tspan3974-8"
         x="510.92319"
         y="-42.357632">hors école</tspan></text>
    <text
       xml:space="preserve"
       style="font-size:14px;font-style:normal;font-weight:normal;line-height:125%;letter-spacing:0px;word-spacing:0px;fill:#000000;fill-opacity:1;stroke:none;font-family:Sans"
       x="562.85712"
       y="372.36218"
       id="text4006"
       sodipodi:linespacing="125%"><tspan
         sodipodi:role="line"
         id="tspan4008"
         x="562.85712"
         y="372.36218">résidence</tspan></text>
    <text
       xml:space="preserve"
       style="font-size:14px;font-style:normal;font-weight:normal;line-height:125%;letter-spacing:0px;word-spacing:0px;fill:#000000;fill-opacity:1;stroke:none;font-family:Sans"
       x="345"
       y="395.21933"
       id="text4010"
       sodipodi:linespacing="125%"><tspan
         sodipodi:role="line"
         id="tspan4012"
         x="345"
         y="395.21933">bâtiment Voltaire</tspan></text>
    <text
       xml:space="preserve"
       style="font-size:14px;font-style:normal;font-weight:normal;line-height:125%;letter-spacing:0px;word-spacing:0px;fill:#000000;fill-opacity:1;stroke:none;font-family:Sans"
       x="279.28574"
       y="615.2193"
       id="text4014"
       sodipodi:linespacing="125%"><tspan
         sodipodi:role="line"
         id="tspan4016"
         x="279.28574"
         y="615.2193">bât. X</tspan></text>
    <text
       xml:space="preserve"
       style="font-size:14px;font-style:normal;font-weight:normal;line-height:125%;letter-spacing:0px;word-spacing:0px;fill:#000000;fill-opacity:1;stroke:none;font-family:Sans"
       x="97.14286"
       y="524.50507"
       id="text4018"
       sodipodi:linespacing="125%"><tspan
         sodipodi:role="line"
         id="tspan4020"
         x="97.14286"
         y="524.50507">bât. A</tspan></text>
    <text
       xml:space="preserve"
       style="font-size:14px;font-style:normal;font-weight:normal;line-height:125%;letter-spacing:0px;word-spacing:0px;fill:#000000;fill-opacity:1;stroke:none;font-family:Sans"
       x="94.285713"
       y="705.2193"
       id="text4022"
       sodipodi:linespacing="125%"><tspan
         sodipodi:role="line"
         id="tspan4024"
         x="94.285713"
         y="705.2193">bât. B</tspan></text>
    <text
       xml:space="preserve"
       style="font-size:14px;font-style:normal;font-weight:normal;line-height:125%;letter-spacing:0px;word-spacing:0px;fill:#000000;fill-opacity:1;stroke:none;font-family:Sans"
       x="488.92859"
       y="717.36218"
       id="text4026"
       sodipodi:linespacing="125%"><tspan
         sodipodi:role="line"
         id="tspan4028"
         x="488.92859"
         y="717.36218">eart-sup</tspan></text>
    <path
       style="fill:none;stroke:#000000;stroke-width:1px;stroke-linecap:butt;stroke-linejoin:miter;stroke-opacity:1"
       d="m 277.5,389.05861 0.54449,-79.91616"
       id="path4030"
       inkscape:connector-curvature="0" />
    <path
       style="fill:none;stroke:#000000;stroke-width:1px;stroke-linecap:butt;stroke-linejoin:miter;stroke-opacity:1"
       d="M 580,671.82647 560.80357,654.86218"
       id="path4032"
       inkscape:connector-curvature="0" />
    <text
       xml:space="preserve"
       style="font-size:22px;font-style:normal;font-weight:normal;line-height:125%;letter-spacing:0px;word-spacing:0px;fill:#000000;fill-opacity:1;stroke:none;font-family:Sans"
       x="367.40759"
       y="-291.34018"
       id="text4034"
       sodipodi:linespacing="125%"
       transform="matrix(0,1,-1,0,0,0)"><tspan
         sodipodi:role="line"
         id="tspan4036"
         x="367.40759"
         y="-291.34018">→</tspan></text>
    <text
       xml:space="preserve"
       style="font-size:22px;font-style:normal;font-weight:normal;line-height:125%;letter-spacing:0px;word-spacing:0px;fill:#000000;fill-opacity:1;stroke:none;font-family:Sans"
       x="367.16122"
       y="-512.21069"
       id="text4034-8"
       sodipodi:linespacing="125%"
       transform="matrix(0,1,-1,0,0,0)"><tspan
         sodipodi:role="line"
         id="tspan4036-0"
         x="367.16122"
         y="-512.21069">→</tspan></text>
    <text
       xml:space="preserve"
       style="font-size:22px;font-style:normal;font-weight:normal;line-height:125%;letter-spacing:0px;word-spacing:0px;fill:#000000;fill-opacity:1;stroke:none;font-family:Sans"
       x="862.98743"
       y="85.717194"
       id="text4034-82"
       sodipodi:linespacing="125%"
       transform="matrix(0.70710678,0.70710678,-0.70710678,0.70710678,0,0)"><tspan
         sodipodi:role="line"
         id="tspan4036-4"
         x="862.98743"
         y="85.717194">→</tspan></text>
    <text
       xml:space="preserve"
       style="font-size:8px;font-style:normal;font-weight:normal;text-align:center;line-height:125%;letter-spacing:0px;word-spacing:0px;text-anchor:middle;fill:#000000;fill-opacity:1;stroke:none;font-family:Sans"
       x="298.49506"
       y="354.59933"
       id="text4068"
       sodipodi:linespacing="125%"><tspan
         sodipodi:role="line"
         id="tspan4070"
         x="298.49506"
         y="354.59933">accès</tspan><tspan
         sodipodi:role="line"
         x="298.49506"
         y="364.59933"
         id="tspan4072">sous-sol</tspan></text>
    <text
       xml:space="preserve"
       style="font-size:8px;font-style:normal;font-weight:normal;text-align:center;line-height:125%;letter-spacing:0px;word-spacing:0px;text-anchor:middle;fill:#000000;fill-opacity:1;stroke:none;font-family:Sans"
       x="519.6272"
       y="354.50964"
       id="text4068-2"
       sodipodi:linespacing="125%"><tspan
         sodipodi:role="line"
         id="tspan4070-1"
         x="519.6272"
         y="354.50964">accès</tspan><tspan
         sodipodi:role="line"
         x="519.6272"
         y="364.50964"
         id="tspan4072-7">sous-sol</tspan></text>
    <text
       xml:space="preserve"
       style="font-size:8px;font-style:normal;font-weight:normal;text-align:center;line-height:125%;letter-spacing:0px;word-spacing:0px;text-anchor:middle;fill:#000000;fill-opacity:1;stroke:none;font-family:Sans"
       x="541.59802"
       y="668.91962"
       id="text4068-28"
       sodipodi:linespacing="125%"><tspan
         sodipodi:role="line"
         id="tspan4070-9"
         x="541.59802"
         y="668.91962">accès</tspan><tspan
         sodipodi:role="line"
         x="541.59802"
         y="678.91962"
         id="tspan4072-2">sous-sol</tspan></text>
    <text
       xml:space="preserve"
       style="font-size:22px;font-style:normal;font-weight:normal;line-height:125%;letter-spacing:0px;word-spacing:0px;fill:#000000;fill-opacity:1;stroke:none;font-family:Sans"
       x="484.48267"
       y="-435.24637"
       id="text4034-2"
       sodipodi:linespacing="125%"
       transform="matrix(0,1,-1,0,0,0)"><tspan
         sodipodi:role="line"
         id="tspan4036-44"
         x="484.48267"
         y="-435.24637">→</tspan></text>
    <text
       xml:space="preserve"
       style="font-size:22px;font-style:normal;font-weight:normal;line-height:125%;letter-spacing:0px;word-spacing:0px;fill:#000000;fill-opacity:1;stroke:none;font-family:Sans"
       x="481.26837"
       y="-162.74637"
       id="text4034-2-7"
       sodipodi:linespacing="125%"
       transform="matrix(0,1,-1,0,0,0)"><tspan
         sodipodi:role="line"
         id="tspan4036-44-0"
         x="481.26837"
         y="-162.74637">→</tspan></text>
    <text
       xml:space="preserve"
       style="font-size:22px;font-style:normal;font-weight:normal;line-height:125%;letter-spacing:0px;word-spacing:0px;fill:#000000;fill-opacity:1;stroke:none;font-family:Sans"
       x="-745.59888"
       y="167.25363"
       id="text4034-2-3"
       sodipodi:linespacing="125%"
       transform="matrix(0,-1,1,0,0,0)"><tspan
         sodipodi:role="line"
         id="tspan4036-44-1"
         x="-745.59888"
         y="167.25363">→</tspan></text>
    <text
       xml:space="preserve"
       style="font-size:22px;font-style:normal;font-weight:normal;line-height:125%;letter-spacing:0px;word-spacing:0px;fill:#000000;fill-opacity:1;stroke:none;font-family:Sans"
       x="290.55408"
       y="-386.67496"
       id="text4034-2-4"
       sodipodi:linespacing="125%"
       transform="matrix(0,1,-1,0,0,0)"><tspan
         sodipodi:role="line"
         id="tspan4036-44-6"
         x="290.55408"
         y="-386.67496">→</tspan></text>
    <text
       xml:space="preserve"
       style="font-size:22px;font-style:normal;font-weight:normal;line-height:125%;letter-spacing:0px;word-spacing:0px;fill:#000000;fill-opacity:1;stroke:none;font-family:Sans"
       x="291.26834"
       y="-416.67496"
       id="text4034-2-4-0"
       sodipodi:linespacing="125%"
       transform="matrix(0,1,-1,0,0,0)"><tspan
         sodipodi:role="line"
         id="tspan4036-44-6-8"
         x="291.26834"
         y="-416.67496">→</tspan></text>
    <text
       xml:space="preserve"
       style="font-size:22px;font-style:normal;font-weight:normal;line-height:125%;letter-spacing:0px;word-spacing:0px;fill:#000000;fill-opacity:1;stroke:none;font-family:Sans"
       x="-465.6803"
       y="483.18341"
       id="text4034-2-4-6"
       sodipodi:linespacing="125%"
       transform="matrix(0,-1,1,0,0,0)"><tspan
         sodipodi:role="line"
         id="tspan4036-44-6-87"
         x="-465.6803"
         y="483.18341">→</tspan></text>
    <text
       xml:space="preserve"
       style="font-size:22px;font-style:normal;font-weight:normal;line-height:125%;letter-spacing:0px;word-spacing:0px;fill:#000000;fill-opacity:1;stroke:none;font-family:Sans"
       x="-466.4379"
       y="359.69229"
       id="text4034-2-4-5"
       sodipodi:linespacing="125%"
       transform="matrix(0,-1,1,0,0,0)"><tspan
         sodipodi:role="line"
         id="tspan4036-44-6-5"
         x="-466.4379"
         y="359.69229">→</tspan></text>
    <text
       xml:space="preserve"
       style="font-size:22px;font-style:normal;font-weight:normal;line-height:125%;letter-spacing:0px;word-spacing:0px;fill:#000000;fill-opacity:1;stroke:none;font-family:Sans"
       x="-500.8381"
       y="-301.08224"
       id="text4034-82-3"
       sodipodi:linespacing="125%"
       transform="matrix(-0.70710678,-0.70710678,0.70710678,-0.70710678,0,0)"><tspan
         sodipodi:role="line"
         id="tspan4036-4-1"
         x="-500.8381"
         y="-301.08224">→</tspan></text>
    <text
       xml:space="preserve"
       style="font-size:22px;font-style:normal;font-weight:normal;line-height:125%;letter-spacing:0px;word-spacing:0px;fill:#000000;fill-opacity:1;stroke:none;font-family:Sans"
       x="365.18146"
       y="-545.09308"
       id="text4034-82-3-3"
       sodipodi:linespacing="125%"
       transform="matrix(-0.70710678,0.70710678,-0.70710678,-0.70710678,0,0)"><tspan
         sodipodi:role="line"
         id="tspan4036-4-1-3"
         x="365.18146"
         y="-545.09308">→</tspan></text>
    <text
       xml:space="preserve"
       style="font-size:22px;font-style:normal;font-weight:normal;line-height:125%;letter-spacing:0px;word-spacing:0px;fill:#000000;fill-opacity:1;stroke:none;font-family:Sans"
       x="-331.42175"
       y="-622.88281"
       id="text4034-82-3-3-2"
       sodipodi:linespacing="125%"
       transform="matrix(-0.9961947,0.08715574,-0.08715574,-0.9961947,0,0)"><tspan
         sodipodi:role="line"
         id="tspan4036-4-1-3-3"
         x="-331.42175"
         y="-622.88281">→</tspan></text>
    <text
       xml:space="preserve"
       style="font-size:22px;font-style:normal;font-weight:normal;line-height:125%;letter-spacing:0px;word-spacing:0px;fill:#000000;fill-opacity:1;stroke:none;font-family:Sans"
       x="-616.31213"
       y="-412.83505"
       id="text4034-82-3-3-2-5"
       sodipodi:linespacing="125%"
       transform="matrix(-0.90630779,-0.42261826,0.42261826,-0.90630779,0,0)"><tspan
         sodipodi:role="line"
         id="tspan4036-4-1-3-3-6"
         x="-616.31213"
         y="-412.83505">→</tspan></text>
    <text
       xml:space="preserve"
       style="font-size:22px;font-style:normal;font-weight:normal;line-height:125%;letter-spacing:0px;word-spacing:0px;fill:#000000;fill-opacity:1;stroke:none;font-family:Sans"
       x="-30.583403"
       y="827.81464"
       id="text4034-82-3-3-2-5-8"
       sodipodi:linespacing="125%"
       transform="matrix(0.70710678,-0.70710678,0.70710678,0.70710678,0,0)"><tspan
         sodipodi:role="line"
         id="tspan4036-4-1-3-3-6-6"
         x="-30.583403"
         y="827.81464">→</tspan></text>
    <text
       xml:space="preserve"
       style="font-size:10px;font-style:normal;font-weight:normal;line-height:125%;letter-spacing:0px;word-spacing:0px;fill:#000000;fill-opacity:1;stroke:none;font-family:Sans"
       x="602.39917"
       y="534.2049"
       id="text4370"
       sodipodi:linespacing="125%"><tspan
         sodipodi:role="line"
         id="tspan4372"
         x="602.39917"
         y="534.2049">amphi 4</tspan></text>
    <text
       xml:space="preserve"
       style="font-size:10px;font-style:normal;font-weight:normal;line-height:125%;letter-spacing:0px;word-spacing:0px;fill:#000000;fill-opacity:1;stroke:none;font-family:Sans"
       x="362.48792"
       y="699.36487"
       id="text4374"
       sodipodi:linespacing="125%"><tspan
         sodipodi:role="line"
         id="tspan4376"
         x="362.48792"
         y="699.36487">cafétéria</tspan></text>
    <text
       xml:space="preserve"
       style="font-size:12px;font-style:normal;font-weight:bold;line-height:125%;letter-spacing:0px;word-spacing:0px;fill:#ff0000;fill-opacity:1;stroke:none;font-family:Sans;-inkscape-font-specification:Sans Bold"
       x="515.63324"
       y="422.91647"
       id="text4538"
       sodipodi:linespacing="125%"><tspan
         sodipodi:role="line"
         id="tspan4540"
         x="515.63324"
         y="422.91647">2</tspan></text>
    <text
       xml:space="preserve"
       style="font-size:12px;font-style:normal;font-weight:bold;line-height:125%;letter-spacing:0px;word-spacing:0px;fill:#ff0000;fill-opacity:1;stroke:none;font-family:Sans;-inkscape-font-specification:Sans Bold"
       x="406.53674"
       y="335.03317"
       id="text4538-5"
       sodipodi:linespacing="125%"><tspan
         sodipodi:role="line"
         id="tspan4540-0"
         x="406.53674"
         y="335.03317">1</tspan></text>
    <text
       xml:space="preserve"
       style="font-size:12px;font-style:normal;font-weight:bold;line-height:125%;letter-spacing:0px;word-spacing:0px;fill:#ff0000;fill-opacity:1;stroke:none;font-family:Sans;-inkscape-font-specification:Sans Bold"
       x="478.25757"
       y="326.95197"
       id="text4538-6"
       sodipodi:linespacing="125%"><tspan
         sodipodi:role="line"
         id="tspan4540-4"
         x="478.25757"
         y="326.95197">3</tspan></text>
    <text
       xml:space="preserve"
       style="font-size:12px;font-style:normal;font-weight:bold;line-height:125%;letter-spacing:0px;word-spacing:0px;fill:#ff0000;fill-opacity:1;stroke:none;font-family:Sans;-inkscape-font-specification:Sans Bold"
       x="595.4353"
       y="667.37335"
       id="text4538-4"
       sodipodi:linespacing="125%"><tspan
         sodipodi:role="line"
         id="tspan4540-08"
         x="595.4353"
         y="667.37335">7</tspan></text>
    <text
       xml:space="preserve"
       style="font-size:12px;font-style:normal;font-weight:bold;line-height:125%;letter-spacing:0px;word-spacing:0px;fill:#ff0000;fill-opacity:1;stroke:none;font-family:Sans;-inkscape-font-specification:Sans Bold"
       x="218.40326"
       y="539.62494"
       id="text4538-8"
       sodipodi:linespacing="125%"><tspan
         sodipodi:role="line"
         id="tspan4540-9"
         x="218.40326"
         y="539.62494">5b</tspan></text>
    <text
       xml:space="preserve"
       style="font-size:12px;font-style:normal;font-weight:bold;line-height:125%;letter-spacing:0px;word-spacing:0px;fill:#ff0000;fill-opacity:1;stroke:none;font-family:Sans;-inkscape-font-specification:Sans Bold"
       x="341.88696"
       y="641.10938"
       id="text4538-1"
       sodipodi:linespacing="125%"><tspan
         sodipodi:role="line"
         id="tspan4540-3"
         x="341.88696"
         y="641.10938">6</tspan></text>
    <text
       xml:space="preserve"
       style="font-size:12px;font-style:normal;font-weight:bold;line-height:125%;letter-spacing:0px;word-spacing:0px;fill:#ff0000;fill-opacity:1;stroke:none;font-family:Sans;-inkscape-font-specification:Sans Bold"
       x="249.12627"
       y="617.40668"
       id="text4538-0"
       sodipodi:linespacing="125%"><tspan
         sodipodi:role="line"
         id="tspan4540-5"
         x="249.12627"
         y="617.40668">4</tspan></text>
    <text
       xml:space="preserve"
       style="font-size:22px;font-style:normal;font-weight:normal;line-height:125%;letter-spacing:0px;word-spacing:0px;fill:#000000;fill-opacity:1;stroke:none;font-family:Sans"
       x="211.55391"
       y="619.72394"
       id="text4034-9"
       sodipodi:linespacing="125%"><tspan
         sodipodi:role="line"
         id="tspan4036-2"
         x="211.55391"
         y="619.72394">→</tspan></text>
    <text
       xml:space="preserve"
       style="font-size:12px;font-style:normal;font-weight:bold;line-height:125%;letter-spacing:0px;word-spacing:0px;fill:#ff0000;fill-opacity:1;stroke:none;font-family:Sans;-inkscape-font-specification:Sans Bold"
       x="340.92896"
       y="605.68799"
       id="text4538-8-5"
       sodipodi:linespacing="125%"><tspan
         sodipodi:role="line"
         id="tspan4540-9-8"
         x="340.92896"
         y="605.68799">5a</tspan></text>
  </g>
</svg>
